<svg preserveAspectRatio="none" overflow="visible" style="display: block;" width="97.7352" height="136.001" viewBox="0 0 97.7352 136.001" fill="none" xmlns="http://www.w3.org/2000/svg">
<g id="Group 11">
<path id="Subtract" d="M30.195 4.54555C33.1132 -0.582603 37.0889 2.31463 38.8899 5.18358C39.4927 6.14229 40.9554 8.68341 42.5485 11.866C43.0877 11.5876 43.842 11.2809 44.7724 10.9848C45.5548 8.71156 49.3754 7.40752 51.3562 9.67374C55.1803 9.29309 59.6283 9.4658 63.7343 10.9073C64.2172 11.0765 64.6824 11.2668 65.1405 11.4642C67.5618 8.3697 69.1903 6.34313 70.7129 4.98268C72.5527 3.33675 74.5475 3.29797 75.4498 5.80389C76.2957 8.15483 77.3811 14.7421 77.0921 22.4994C80.532 22.8624 84.2117 23.6273 88.138 24.9031C88.924 25.0758 89.6395 25.2944 90.1224 25.5799C102.01 32.5584 92.7269 39.3043 82.4036 41.0771C82.6997 42.1803 82.7842 43.4985 82.7701 44.9118C86.492 45.088 89.5161 45.6978 89.5161 47.9358C89.5161 49.3279 88.9733 49.906 88.2437 50.2796C88.1944 55.02 87.352 57.8855 85.4876 59.4539C88.0428 60.2469 90.2845 60.966 91.1585 61.3501C92.9172 62.1255 94.1226 63.2886 94.6407 64.716C95.1059 65.9919 94.9825 67.4088 94.2882 68.8151C94.1155 69.1675 93.8759 69.5482 93.5798 69.9358C93.9887 75.5538 90.7074 78.7366 87.6657 79.7658C87.1864 79.9279 86.7141 80.0335 86.2559 80.0934C85.5369 81.6935 84.0778 83.4277 81.6882 84.7282C80.6626 85.3133 79.4606 85.849 78.1002 86.2508C76.5354 86.7125 76.2815 86.6984 76.5352 87.5513C76.7397 88.2317 77.9875 91.6997 79.8449 93.1694C80.2643 93.5007 80.5497 93.5747 79.8449 93.8108C79.1399 94.0434 77.3389 93.7932 76.2181 93.2963C75.5555 93.0038 75.6436 93.1342 75.8058 93.5466C75.9644 93.9593 76.3872 96.2218 76.2004 97.3354C76.1229 97.7935 76.0349 97.7901 76.5811 98.1566L76.5741 98.1601C82.4776 102.139 90.5241 103.313 95.6946 134.272H2.09766C2.09766 134.272 3.34888 127.829 5.38603 118.588C7.42318 109.347 13.221 103.08 15.8045 100.652C18.3878 98.2237 24.4776 94.4457 24.8695 94.1704C24.9294 93.4867 24.9293 93.3385 24.9082 92.8592C24.3689 93.2504 22.4657 94.2901 21.3449 93.6134C20.9397 93.3668 21.1265 93.3067 21.5318 92.7852C21.9336 92.2635 23.8473 90.1135 23.6605 85.1195C23.6253 84.2384 23.2342 84.767 23.072 85.2675C22.9099 85.7644 22.7124 86.3248 22.6384 86.8887C22.5644 87.4525 22.3071 87.5266 21.8242 87.0121C21.3413 86.4974 19.1245 84.2944 18.9906 77.1858C18.9765 76.4069 19.0117 76.294 18.5958 76.6711C17.8486 77.3478 17.3482 78.1832 16.9077 79.4026C16.4671 80.622 16.1005 79.2863 15.8221 78.5955C15.5436 77.9045 14.5639 72.8681 16.0864 69.46C16.453 68.6388 16.2838 68.5859 15.7692 68.8432C14.9938 69.2344 14.5356 69.5271 13.9118 69.9676C13.3127 70.3869 13.0307 70.253 13.0306 69.6363C13.0306 69.0195 12.3998 66.0342 17.824 58.7455C18.4513 57.9032 18.2715 57.8362 17.8451 57.9419C17.1507 58.111 15.5366 58.0688 14.652 57.7269C13.9964 57.4732 14.4581 57.2968 14.7119 56.9233C14.9661 56.5492 20.2133 50.4034 21.0559 49.677C21.8983 48.951 21.5846 48.8558 21.2709 48.7959C20.9571 48.7395 19.9104 48.6724 18.7651 47.4953C18.1941 46.9103 18.5677 46.8397 19.0964 46.6917C19.6251 46.5471 21.0947 45.6589 21.8947 44.51C22.3423 43.8615 22.3424 44.02 22.0111 43.2165C21.676 42.4123 16.0515 29.4139 30.195 4.54555ZM86.4849 49.9096C85.4346 49.8955 84.1094 49.899 82.4882 49.9096C82.4635 50.7449 82.4107 51.6049 82.3331 52.4896L82.3296 52.4966C82.1041 55.0518 83.4257 57.0468 84.3526 58.1076C85.5509 57.0926 86.4708 54.9742 86.4849 49.9096ZM82.6961 46.8996C82.6714 47.3155 82.6433 47.7314 82.6151 48.1473C84.0495 48.1367 85.2479 48.1367 86.2348 48.1438C85.5792 47.6221 84.4795 47.1569 82.6961 46.8996Z" fill="white"/>
<path id="Subtract (Stroke)" d="M89.5154 47.936C89.5153 45.6979 86.4912 45.0882 82.7694 44.912C82.7835 43.4987 82.6989 42.1804 82.4029 41.0773C92.7261 39.3045 102.01 32.5585 90.1216 25.58C89.6388 25.2945 88.9232 25.076 88.1373 24.9033C84.211 23.6274 80.5313 22.8626 77.0914 22.4996C77.3804 14.7423 76.2949 8.15499 75.4491 5.80405C74.5468 3.29813 72.5519 3.3369 70.7121 4.98283C69.1896 6.34329 67.5611 8.36986 65.1398 11.4643C64.6816 11.267 64.2164 11.0766 63.7336 10.9075C59.6275 9.46596 55.1795 9.29325 51.3554 9.6739C49.3747 7.40768 45.5541 8.71172 44.7717 10.985C43.8412 11.281 43.087 11.5877 42.5477 11.8661C40.9547 8.68357 39.4919 6.14244 38.8892 5.18374C37.0882 2.31479 33.1125 -0.582446 30.1942 4.54571C16.0507 29.414 21.6753 42.4125 22.0104 43.2166C22.3416 44.0202 22.3416 43.8617 21.894 44.5102C21.094 45.6591 19.6244 46.5473 19.0957 46.6918C18.567 46.8399 18.1934 46.9104 18.7643 47.4955C19.9097 48.6725 20.9564 48.7396 21.2702 48.796C21.5839 48.8559 21.8976 48.9511 21.0552 49.6772C20.2126 50.4036 14.9654 56.5494 14.7112 56.9235C14.4574 57.297 13.9957 57.4733 14.6512 57.7271C15.5358 58.069 17.15 58.1112 17.8444 57.9421L17.9849 58.5195C17.9384 58.5878 17.8848 58.6631 17.8233 58.7457C12.3991 66.0343 13.0299 69.0197 13.0299 69.6365C13.0299 70.2531 13.312 70.3871 13.9111 69.9678C14.5349 69.5272 14.9931 69.2346 15.7685 68.8434C16.283 68.5861 16.4522 68.639 16.0857 69.4602C14.5632 72.8683 15.5429 77.9047 15.8214 78.5957C16.0998 79.2865 16.4664 80.6221 16.9069 79.4028C17.3475 78.1834 17.8479 77.348 18.5951 76.6713C19.011 76.2942 18.9758 76.407 18.9899 77.1859C19.1238 84.2946 21.3406 86.4976 21.8235 87.0122C22.3063 87.5268 22.5637 87.4527 22.6377 86.8888C22.7117 86.325 22.9092 85.7646 23.0713 85.2677C23.2334 84.7672 23.6246 84.2385 23.6598 85.1197C23.8466 90.1137 21.9329 92.2637 21.531 92.7854C21.1258 93.3069 20.939 93.3669 21.3442 93.6136C22.4649 94.2903 24.3681 93.2506 24.9075 92.8594C24.9286 93.3386 24.9287 93.4869 24.8688 94.1706C24.4769 94.4459 18.3871 98.2239 15.8038 100.652C13.2203 103.081 7.42247 109.347 5.38531 118.588C3.34816 127.83 2.09694 134.272 2.09694 134.272H95.6938C90.5234 103.313 82.4769 102.139 76.5733 98.1603L76.5804 98.1568C76.0341 97.7903 76.1221 97.7937 76.1997 97.3356C76.3864 96.2219 75.9637 93.9595 75.805 93.5468C75.6429 93.1344 75.5548 93.004 76.2174 93.2965C77.3381 93.7934 79.1392 94.0436 79.8441 93.811C80.5489 93.5749 80.2635 93.5009 79.8441 93.1696C77.9868 91.6999 76.739 88.2319 76.5345 87.5515C76.2808 86.6986 76.5346 86.7126 78.0994 86.251C79.4598 85.8492 80.6618 85.3134 81.6875 84.7284C84.077 83.4279 85.5361 81.6937 86.2551 80.0936C86.7133 80.0337 87.1857 79.9281 87.665 79.7659C90.7066 78.7368 93.9879 75.554 93.5791 69.936C93.8751 69.5483 94.1148 69.1677 94.2875 68.8152C94.9818 67.409 95.1051 65.9921 94.6399 64.7162C94.1218 63.2888 92.9165 62.1257 91.1578 61.3503C90.2837 60.9661 88.0421 60.2471 85.4868 59.4541C87.3513 57.8857 88.1936 55.0202 88.243 50.2798C88.9725 49.9062 89.5153 49.3281 89.5154 47.936ZM17.9867 58.5168C17.9861 58.5177 17.9855 58.5186 17.9849 58.5195L17.8444 57.9421L17.9867 58.5168ZM17.8444 57.9421C18.2284 57.8468 18.4122 57.8916 17.9867 58.5168L17.8444 57.9421ZM82.4874 49.9097C84.1086 49.8992 85.4339 49.8956 86.4842 49.9097C86.4701 54.9744 85.5502 57.0928 84.3519 58.1078C83.4249 57.0469 82.1033 55.052 82.3289 52.4968L82.3324 52.4897C82.4099 51.6051 82.4628 50.745 82.4874 49.9097ZM84.1332 51.6307C84.1106 51.9646 84.0843 52.3013 84.0546 52.6407L84.0395 52.8121C84.0034 53.4829 84.1118 54.1091 84.3019 54.6769C84.4869 53.9343 84.6364 52.9473 84.7085 51.6293C84.5227 51.6294 84.3309 51.6301 84.1332 51.6307ZM82.6954 46.8998C84.4788 47.1571 85.5785 47.6223 86.234 48.1439C85.2472 48.1369 84.0488 48.1369 82.6143 48.1474C82.6425 47.7316 82.6707 47.3156 82.6954 46.8998ZM91.2421 48.1072C91.2278 48.6738 91.1414 49.2068 90.9627 49.6972L91.2283 49.9085L90.8798 49.9059C90.8061 50.0771 90.7203 50.2427 90.6212 50.4022C90.4231 50.721 90.1933 50.9813 89.9524 51.1965C89.8544 54.1842 89.4111 56.6597 88.3869 58.5538C89.8414 59.0198 91.0719 59.4362 91.7569 59.726L91.8534 59.7677L91.8552 59.7684C93.9215 60.6794 95.5439 62.1421 96.2642 64.124L96.2941 64.208C96.9099 65.9731 96.6913 67.8484 95.8397 69.5758L95.8399 69.576C95.6974 69.8667 95.5274 70.1589 95.336 70.4478C95.5197 76.5504 91.8016 80.1914 88.219 81.4036H88.2189C87.946 81.4959 87.6745 81.5731 87.4057 81.6371C86.441 83.3214 84.8412 84.9752 82.5353 86.2351C81.402 86.8807 80.0803 87.4686 78.5892 87.909L78.5886 87.9091C78.5609 87.9173 78.5339 87.9249 78.5077 87.9326C78.6618 88.32 78.8662 88.7938 79.1148 89.2895C79.6571 90.3707 80.2949 91.3211 80.9156 91.8129C81.0554 91.9233 80.9598 91.8419 81.1711 92.0037C81.2254 92.0452 81.3279 92.1253 81.4329 92.2298C81.5233 92.3196 81.7339 92.5406 81.8715 92.8854C82.0404 93.3088 82.0632 93.835 81.8256 94.3344C81.6291 94.7473 81.3293 94.9795 81.1811 95.0816C80.8946 95.2789 80.5699 95.3911 80.3932 95.4503L80.3896 95.4515L80.3858 95.4527C79.9586 95.5937 79.505 95.6256 79.1467 95.6275C78.7603 95.6295 78.3486 95.596 77.9455 95.5392C77.935 95.5378 77.9246 95.536 77.9141 95.5345C77.9605 96.002 77.9894 96.5189 77.9669 97.0051L77.9929 97.0227C80.6405 98.7057 84.3726 100.369 87.8057 105.081C91.4358 110.063 94.7973 118.41 97.399 133.988L97.7352 136.001H7.97493e-05L0.399783 133.943L2.09694 134.272C0.450834 133.953 0.401396 133.943 0.399924 133.943V133.942C0.399969 133.942 0.399988 133.942 0.400065 133.941C0.400231 133.941 0.400597 133.939 0.400909 133.938C0.401549 133.934 0.402476 133.93 0.403723 133.923C0.406216 133.91 0.409804 133.891 0.414696 133.866C0.424488 133.816 0.439081 133.742 0.458311 133.644C0.496773 133.448 0.553968 133.159 0.628828 132.784C0.778545 132.032 0.999181 130.935 1.2836 129.549C1.85243 126.776 2.67633 122.846 3.69702 118.216C5.84275 108.483 11.9275 101.923 14.6197 99.3923C16.0243 98.0721 18.2999 96.4513 20.189 95.1725C20.2513 95.1303 20.3134 95.0884 20.3751 95.0468C20.2252 94.9518 19.938 94.7506 19.7184 94.4293C19.557 94.1934 19.4201 93.8791 19.3938 93.5005C19.3684 93.135 19.455 92.8347 19.5401 92.6323C19.6779 92.3046 19.8994 92.0496 19.9391 92.0014C20.0374 91.882 20.084 91.83 20.1659 91.7245C20.3791 91.4488 20.8147 90.9496 21.2176 89.9712C21.3397 89.6747 21.4601 89.3289 21.5669 88.9294C21.4364 88.8756 21.3282 88.8166 21.2464 88.7669C20.9649 88.5959 20.7359 88.3796 20.5628 88.1952C20.2585 87.8709 19.4273 87.0168 18.6817 85.2411C18.2555 84.2257 17.8677 82.9354 17.6042 81.2969C17.4784 81.3821 17.3328 81.4598 17.165 81.5189C16.5021 81.7524 15.8972 81.5702 15.5066 81.3185C15.1749 81.1046 14.9725 80.8333 14.8723 80.6854C14.6645 80.3788 14.5201 80.0262 14.4388 79.8205C14.3916 79.7012 14.3469 79.5814 14.3108 79.4848C14.2718 79.3808 14.2432 79.3049 14.2179 79.242V79.2419C14.0735 78.8835 13.9359 78.2795 13.8273 77.6494C13.7095 76.9651 13.6001 76.0952 13.5516 75.134C13.5028 74.1675 13.5126 73.0529 13.6601 71.9161C13.3615 71.9592 12.9931 71.9515 12.6038 71.7958C11.9645 71.5401 11.6263 71.0334 11.4706 70.6302C11.3269 70.258 11.3011 69.8952 11.3011 69.6366V69.6365C11.3011 69.8212 11.2651 69.0695 11.2897 68.6074C11.3228 67.9871 11.4378 67.1926 11.7367 66.1963C12.2252 64.5677 13.1991 62.421 15.082 59.6232C14.7197 59.5582 14.3574 59.4669 14.0281 59.3397L14.0271 59.3393C13.8305 59.2632 13.338 59.0661 12.9812 58.6052C12.7602 58.3196 12.5942 57.9372 12.5866 57.489C12.5795 57.0727 12.7122 56.7493 12.8141 56.558C12.9797 56.2468 13.2338 55.9965 13.2436 55.9862C13.2771 55.9506 13.2937 55.9319 13.3 55.9248C13.4515 55.7124 13.897 55.1802 14.3706 54.6198C14.9162 53.974 15.6268 53.1427 16.3553 52.3011C17.0831 51.4601 17.8336 50.6034 18.4579 49.9082C18.5337 49.8238 18.6093 49.7398 18.6841 49.6571C18.3051 49.413 17.9141 49.1008 17.5253 48.7012V48.7011C17.3421 48.5132 17.0653 48.2039 16.8989 47.7939C16.8062 47.5655 16.722 47.2432 16.7577 46.8619C16.7953 46.4596 16.9556 46.1128 17.1719 45.8446C17.5357 45.3935 18.0148 45.222 18.1491 45.1731C18.3302 45.1072 18.5478 45.0499 18.6296 45.027L18.6397 45.0242C18.585 45.0392 18.6415 45.028 18.8206 44.9311C18.9766 44.8467 19.1727 44.7258 19.3835 44.5742C19.7491 44.3112 20.0908 44.0043 20.3399 43.6999C19.9525 42.7368 18.6354 39.0915 18.9461 32.8197C19.2812 26.0552 21.5047 16.3275 28.6915 3.69101L28.6916 3.69059C29.5327 2.21272 30.5503 1.13446 31.759 0.531507C32.9991 -0.0871542 34.2728 -0.120939 35.4253 0.200602C37.6007 0.807588 39.3454 2.65916 40.3528 4.26362L40.4824 4.47255C41.0634 5.41912 42.1369 7.2936 43.3545 9.64224C43.4108 9.6216 43.4678 9.60099 43.5254 9.58048C44.3245 8.22036 45.7621 7.31014 47.1928 6.95054C48.7085 6.56958 50.5293 6.73021 51.9756 7.88332C55.7849 7.58505 60.1766 7.82675 64.3051 9.27588H64.3052C64.3981 9.30843 64.49 9.34187 64.5811 9.37549C66.5687 6.8511 68.0908 5.0067 69.5603 3.69368C70.6495 2.71951 72.0849 1.93942 73.6318 2.11921C75.3393 2.31767 76.486 3.58087 77.0756 5.21835L77.0757 5.21877C77.959 7.67367 78.965 13.7737 78.8598 20.9736C81.9353 21.3972 85.1781 22.1291 88.5914 23.2333C89.39 23.4127 90.294 23.6735 91.0015 24.0918H91.0013C94.1078 25.9161 96.1469 27.8977 96.9932 30.0681C97.8953 32.3813 97.3168 34.5622 95.9651 36.3306C94.6653 38.031 92.6302 39.4063 90.3632 40.4577C88.5527 41.2974 86.5102 41.9692 84.3972 42.444C84.4269 42.725 84.449 43.0092 84.465 43.295C85.7948 43.4186 87.0766 43.6347 88.1407 44.0304C88.8982 44.3121 89.6688 44.7287 90.262 45.3792C90.8918 46.0698 91.2442 46.9421 91.2442 47.936L91.2421 48.1072Z" fill="#F9F3E9"/>
<g id="Capa 1">
<path id="Vector" d="M51.9569 43.3962C50.9594 44.7848 52.4433 43.8508 52.7781 43.7063C53.1129 43.5618 58.0649 41.655 63.1542 43.2658C63.9825 43.5266 64.1764 43.6464 64.0072 42.871C63.4856 40.5061 55.6893 38.2116 51.9569 43.3997V43.3962Z" fill="#1D1D1B"/>
<path id="Vector_2" d="M74.0015 41.9265C73.4482 42.7195 73.1345 43.643 74.5161 43.1319C75.8977 42.6208 78.7033 41.9018 80.0954 43.8791C81.4876 45.8563 81.3008 42.5574 79.4927 41.2639C77.6847 39.9704 75.147 40.2806 74.0015 41.9265Z" fill="#1D1D1B"/>
<path id="Vector_3" d="M76.5733 98.1565C76.027 97.79 76.1152 97.7935 76.1927 97.3353C76.3795 96.2216 75.9566 93.9589 75.798 93.5465C75.6358 93.1341 75.5477 93.0037 76.2103 93.2962C77.3311 93.7932 79.1321 94.0434 79.837 93.8108C80.542 93.5747 80.2565 93.5007 79.837 93.1694C77.9796 91.6996 76.732 88.2315 76.5275 87.5513C76.2738 86.6984 76.5275 86.7125 78.0924 86.2507C79.4529 85.849 80.6547 85.3132 81.6804 84.7282C84.07 83.4276 85.5291 81.6936 86.2481 80.0934C86.7063 80.0335 87.1786 79.9278 87.6579 79.7657C90.6996 78.7365 93.9809 75.5539 93.5721 69.9358C93.8681 69.5481 94.1078 69.1674 94.2805 68.815C94.9748 67.4087 95.0982 65.9919 94.6329 64.716C94.1148 63.2886 92.9095 62.1255 91.1507 61.3501C90.2766 60.9659 88.0351 60.2469 85.4798 59.4539C87.3443 57.8855 88.1866 55.0201 88.236 50.2796C88.9655 49.906 89.5083 49.328 89.5083 47.9358C89.5083 45.6977 86.4843 45.088 82.7624 44.9118C82.7765 43.4984 82.6919 42.1803 82.3958 41.0771C92.7191 39.3043 102.003 32.5583 90.1145 25.5798C89.6317 25.2943 88.9162 25.0758 88.1302 24.9031C84.2039 23.6272 80.5243 22.8624 77.0844 22.4994C77.3734 14.7419 76.2879 8.15464 75.442 5.80379C74.5397 3.29786 72.5448 3.33663 70.705 4.98258C69.1825 6.34304 67.5541 8.36963 65.1328 11.4642C64.6746 11.2668 64.2094 11.0765 63.7265 10.9073C59.6205 9.46576 55.1725 9.29305 51.3484 9.6737C49.3677 7.40744 45.5471 8.71151 44.7646 10.9848C43.8342 11.2809 43.0799 11.5875 42.5407 11.8659C40.9476 8.68331 39.4849 6.14214 38.8822 5.18347C37.0812 2.31452 33.1056 -0.582626 30.1873 4.54554C16.0434 29.4145 21.6685 42.4129 22.0034 43.2165C22.3347 44.0201 22.3347 43.8615 21.887 44.51C21.087 45.659 19.6173 46.5471 19.0886 46.6916C18.5599 46.8397 18.1863 46.9102 18.7573 47.4952C19.9027 48.6724 20.9495 48.7394 21.2632 48.7958C21.5769 48.8557 21.8906 48.9508 21.0482 49.6769C20.2059 50.4029 14.9579 56.5497 14.7041 56.9233C14.4503 57.2969 13.9886 57.4731 14.6442 57.7269C15.5288 58.0688 17.1431 58.1111 17.8374 57.9419C18.2638 57.8361 18.4436 57.9031 17.8162 58.7455C12.392 66.0342 13.0229 69.0194 13.0229 69.6362C13.0229 70.253 13.3049 70.3869 13.904 69.9675C14.5279 69.5269 14.9861 69.2344 15.7614 68.8432C16.276 68.5859 16.4452 68.6388 16.0786 69.46C14.5561 72.8682 15.5359 77.9047 15.8143 78.5955C16.0927 79.2863 16.4593 80.6221 16.8999 79.4026C17.3404 78.1831 17.8409 77.3478 18.5881 76.6711C19.004 76.294 18.9687 76.4068 18.9828 77.1857C19.1168 84.2946 21.3337 86.4975 21.8166 87.012C22.2994 87.5266 22.5567 87.4526 22.6307 86.8887C22.7047 86.3248 22.9021 85.7644 23.0642 85.2674C23.2264 84.7669 23.6176 84.2383 23.6528 85.1194C23.8396 90.1136 21.9258 92.2636 21.524 92.7852C21.1187 93.3068 20.9319 93.3667 21.3372 93.6135C22.458 94.2902 24.3612 93.2504 24.9005 92.8592C24.9216 93.3385 24.9216 93.4866 24.8617 94.1703C24.4705 94.4452 18.3802 98.2235 15.7967 100.652C13.2132 103.08 7.4154 109.347 5.37824 118.588C3.34107 127.829 2.08987 134.272 2.08987 134.272H95.6868C90.5163 103.313 82.4699 102.139 76.5663 98.1601L76.5733 98.1565ZM92.1764 71.402C91.9614 75.3706 89.5013 77.6474 87.1998 78.4263C86.1917 78.7682 85.1978 78.8281 84.4542 78.6378C86.0613 77.3408 87.2491 75.5891 87.9469 73.4251C89.5612 73.2171 91.0309 72.3924 92.1728 71.402H92.1764ZM82.6884 46.8996C84.4718 47.1569 85.5714 47.6221 86.227 48.1437C85.2401 48.1367 84.0418 48.1367 82.6073 48.1473C82.6355 47.7314 82.6637 47.3155 82.6884 46.8996ZM82.3254 52.4895C82.4029 51.6048 82.4558 50.7448 82.4804 49.9095C84.1017 49.8989 85.4269 49.8954 86.4772 49.9095C86.4631 54.9742 85.5432 57.0925 84.3449 58.1075C83.4179 57.0467 82.0963 55.0518 82.3218 52.4965L82.3254 52.4895ZM80.5701 52.3344C80.334 54.9848 81.409 57.1207 82.424 58.5128C79.8793 57.7304 77.5073 57.0044 76.7919 56.7153C75.3257 56.1303 74.2965 54.6183 74.0251 53.9803C73.9335 53.7653 73.7819 52.923 73.7819 49.7403C73.7819 49.6135 73.7819 49.4866 73.789 49.3597C73.9194 48.2283 74.6913 46.8961 78.5295 46.7057C78.8467 46.6952 79.1709 46.6916 79.5022 46.6916C79.8934 46.6916 80.2917 46.6987 80.69 46.7128C80.7816 48.3764 80.7569 50.2443 80.5701 52.3344ZM73.8383 36.5023C74.7582 35.9137 75.7627 35.9172 76.739 36.5093C78.325 37.4715 79.9498 40.1572 80.5243 44.8448C80.1155 44.8377 79.7031 44.8342 79.2907 44.8342C77.5814 44.8236 73.292 44.8342 72.2946 47.4318C71.9139 47.386 71.5122 47.3507 71.0786 47.326C70.4231 41.0665 72.1466 37.5808 73.8419 36.4988L73.8383 36.5023ZM72.0303 49.1764C72.0197 49.3914 72.0197 49.5853 72.0197 49.7403C72.0197 49.7615 72.0197 49.7791 72.0197 49.8003C70.6205 49.7227 69.2388 49.7298 67.755 49.8249C67.7339 49.6417 67.7092 49.4654 67.681 49.2963C69.4961 48.9931 70.8566 49.046 72.0303 49.1799V49.1764ZM58.831 36.4635C65.013 35.6317 68.1286 43.2623 69.1719 47.3472C68.6961 47.3789 68.1885 47.4318 67.6458 47.5164C66.6237 44.5523 60.4769 44.6263 57.9146 44.6474C50.4814 44.7038 48.4442 45.955 46.8406 46.9313C48.705 42.3389 52.2683 37.3482 58.8345 36.4635H58.831ZM66.0668 51.1889C66.0668 56.9762 63.0181 60.2927 57.7066 60.2927C57.4176 60.2927 57.1392 60.2822 56.8678 60.2681C52.9521 60.039 50.0126 58.1216 50.0126 52.5987C50.0126 47.4318 51.07 47.1322 57.2767 46.8397C62.8912 46.5753 64.9107 47.4388 65.672 48.535C65.9364 49.2011 66.0668 50.0787 66.0668 51.1889ZM32.1328 8.97232C34.0501 5.3315 34.8114 6.27255 35.5798 7.32638C41.6313 15.6301 42.1213 24.4485 42.3257 26.7711C42.5301 29.0902 41.8252 29.8269 40.856 30.6763C40.6304 30.8736 39.9607 31.4799 39.069 32.2905C35.7207 30.137 35.4282 25.7349 35.4 25.4036C35.3718 25.0582 35.3648 24.8009 35.7313 25.1252C36.0979 25.4494 36.7464 26.0063 37.2645 26.9086C37.6768 27.624 37.7332 27.0989 37.698 26.7993C37.2222 22.9082 35.4494 18.9573 34.9841 17.8999C34.5189 16.8426 34.4554 17.0752 34.1594 17.7237C31.3398 23.8916 32.6685 30.1405 32.8906 30.641C33.1126 31.1415 32.8377 31.1098 32.6192 30.9864C32.4007 30.8631 31.3116 29.9432 30.9979 29.6894C30.6842 29.4356 30.5609 29.129 30.6067 30.0207C30.7512 32.9319 31.9037 35.4238 33.4404 37.4222C31.8649 38.8602 30.6631 39.9563 30.6631 39.9563C23.5541 28.9422 30.2119 12.6131 32.1328 8.9688V8.97232ZM68.971 101.537C68.6996 102.167 68.5375 102.182 68.3612 101.455C68.185 100.729 67.5083 99.7003 66.9444 98.872C66.3805 98.0438 66.4686 98.5548 66.525 99.2597C66.5814 99.9646 66.1126 103.049 65.8483 103.842C65.5839 104.635 65.3548 104.976 64.2622 105.516C61.4638 106.897 43.45 107.659 38.0046 91.5657C37.335 89.5814 37.3878 89.8316 38.3853 90.4343C39.3827 91.037 40.0735 91.4635 40.6903 91.6961C41.3071 91.9323 41.4692 91.8864 41.3071 91.3578C41.145 90.8291 40.3801 87.939 37.3279 83.766C37.0319 83.3606 37.0354 83.2796 37.7086 83.4135C38.3818 83.5474 40.4542 83.8999 41.1309 84.0444C41.8076 84.1924 41.9591 84.0056 41.1027 83.2514C38.7835 81.2107 34.9348 80.3578 32.732 78.4792C32.1116 77.9505 32.3936 77.8906 33.0421 77.8483C33.6906 77.806 36.112 77.732 36.831 77.8483C37.55 77.9646 37.3596 77.658 37.0354 77.2456C36.7111 76.8333 34.8185 73.9185 27.2408 72.4452C26.2927 72.262 26.2574 72.4452 26.7403 71.4901C27.2267 70.535 28.8409 67.8916 30.8217 66.4395C31.3045 66.087 31.4526 65.9989 30.8358 65.8086C30.219 65.6183 28.5166 65.3222 26.5041 65.3962C26.0107 65.4138 25.9755 65.4561 26.5323 64.6314C27.0892 63.8102 34.0642 54.0085 44.0315 55.6721C45.1171 55.8518 45.0114 55.8166 44.9479 54.9954C44.9127 54.5478 45.0854 52.6445 45.7339 50.2162C46.9921 50.188 47.8697 50.3395 47.9156 51.4568C47.9156 51.4674 47.9156 51.4814 47.9156 51.4955C47.9226 51.8762 47.9367 52.278 47.9649 52.708C47.9755 58.9111 51.2497 62.0585 57.6961 62.0585C64.1424 62.0585 67.8185 57.8961 67.8185 51.1924C67.8185 51.0832 67.8114 50.988 67.8114 50.8823C69.2776 50.7871 70.6381 50.7836 72.0162 50.8647C72.0444 52.9794 72.1571 54.1143 72.3933 54.6676C72.7034 55.4007 73.9758 57.4943 76.1293 58.3542C76.9329 58.675 79.3295 59.4116 82.1033 60.261C83.3651 60.6487 84.6938 61.054 85.9168 61.4382C83.2312 61.4029 80.4327 61.9387 79.2872 63.6657C78.533 64.8041 78.3145 66.0553 78.6563 67.2854C79.467 70.1966 83.0655 72.1774 84.574 72.8893C85.2084 73.1889 85.8358 73.3651 86.4526 73.4392C84.6374 78.3699 80.334 79.6599 76.9681 79.8573C69.8415 80.2661 61.062 76.0579 57.9851 70.9579C58.1684 70.9579 58.3552 70.9579 58.5596 70.979C60.5368 71.1623 59.9165 69.6996 58.2071 69.5269C55.8281 69.2908 54.4676 69.9005 54.2773 71.046C54.1821 71.624 54.5804 71.9307 54.8306 71.9307C55.2712 71.9307 55.7364 71.5112 56.5189 71.2222C59.5006 76.7522 68.2767 81.2953 75.9566 81.2953C76.3231 81.2953 76.6861 81.2847 77.0492 81.2636C79.3718 81.1261 81.3949 80.5481 83.0831 79.5753C83.5237 79.8467 84.0594 80.0229 84.6515 80.104C83.7633 81.6654 82.0399 83.2796 79.2485 84.3017C77.4827 84.8727 75.6253 85.1405 73.8736 85.1405C69.8204 85.1405 65.6509 84.4145 61.714 83.2796C57.7771 82.1447 58.7957 82.2822 57.2978 81.9297C55.7999 81.5772 56.3568 82.2822 57.0264 82.839C57.6961 83.3959 63.1732 86.8922 67.0783 91.8265C70.9835 96.7608 69.2353 100.902 68.9639 101.533L68.971 101.537Z" fill="#131313"/>
<path id="Vector_4" d="M61.311 52.4716C61.311 54.685 60.4088 56.4825 58.9109 56.4825C57.4129 56.4825 56.4648 54.6885 56.4648 52.4716C56.4648 50.2547 57.4411 48.4043 59.0201 48.4043C60.3418 48.4043 61.311 50.2582 61.311 52.4716Z" fill="#1D1D1B"/>
<path id="Vector_5" d="M78.0475 52.1095C78.0475 54.0515 77.3461 55.6552 76.3416 55.6552C74.9918 55.6552 74.2305 54.0515 74.2305 52.1095C74.2305 49.9983 74.8966 48.4863 76.1408 48.4863C77.1805 48.4863 78.051 50.1675 78.051 52.1095H78.0475Z" fill="#1D1D1B"/>
<path id="Vector_6" d="M34.9112 48.6441C38.7317 48.3128 44.667 47.911 45.3296 47.9181C45.7173 47.9216 45.7103 47.8793 45.6926 48.2811C45.675 48.6829 45.668 49.0248 45.6821 49.1411C45.7103 49.3702 45.6574 49.4371 45.1816 49.4266C44.4485 49.4089 38.3863 49.3384 35.2354 49.5147C34.7949 49.5393 34.8231 49.5041 34.5904 49.0952C34.3578 48.6864 34.6257 48.6688 34.9112 48.6441Z" fill="#575756"/>
<path id="Vector_7" d="M31.7233 134.269C31.8608 121.482 30.4157 118.303 29.6826 116.576C29.3865 115.881 28.7521 115.25 29.0799 116.438C30.8633 122.909 30.6378 127.833 30.5496 134.269H31.7233Z" fill="#3C3C3B"/>
<path id="Vector_8" d="M85.7274 134.269C85.9565 120.333 84.6313 116.431 84.1801 115.557C83.729 114.683 83.0065 112.9 83.6233 116.026C84.3564 119.755 84.6524 126.159 84.5044 134.265H85.7274V134.269Z" fill="#3C3C3B"/>
<path id="Vector_9" d="M37.2538 101.167C49.6072 114.063 70.3419 114.147 73.313 101.773C73.5703 100.708 73.2108 101.135 72.6363 102.291C72.0372 103.503 61.9747 118.941 37.2749 100.666C34.917 98.9215 37.0811 100.987 37.2538 101.167Z" fill="#3C3C3B"/>
<path id="Vector_10" d="M83.4631 64.0751C83.0296 64.1737 82.8569 64.35 83.0331 64.6425C83.2093 64.935 83.3045 65.1113 83.4137 65.2558C83.523 65.4003 83.7309 65.4813 84.1468 65.3509C85.0738 65.0654 88.8838 64.6672 91.3791 64.7623C92.151 64.7905 92.0488 64.424 91.4954 64.1244C90.9421 63.8248 88.7428 62.8556 83.4596 64.0715L83.4631 64.0751Z" fill="#3C3C3B"/>
<path id="Vector_11" d="M73.74 22.2599C71.7662 17.3538 68.2488 13.9844 63.2651 12.2362C55.2046 9.40956 45.8399 11.6688 43.1719 13.1279C45.7412 18.4323 48.4058 25.0619 48.2401 29.2878C54.0133 25.7739 62.4509 21.8758 73.74 22.2599Z" fill="#3C3C3B"/>
<path id="Vector_12" d="M44.5489 33.3869C44.1013 33.6935 43.6819 33.979 43.2871 34.2434C46.8751 35.3324 55.6194 37.0735 64.0218 31.7198C70.5915 27.5327 77.14 25.2664 83.2938 25.0021C63.6553 20.3321 50.96 29.0059 44.5489 33.3869Z" fill="#3C3C3B"/>
</g>
</g>
</svg>
